# xmcd
#
# Track frame offsets:
# 150
# 16850
# 31050
# 46662
# 67171
# 99540
#
# Disc length: 2235 seconds
#
#
# Revision: 0
# Processed by: cddbd v1.5.2PL0 Copyright (c) Steve Scherf et al.
# Submitted via: FreeRIP 2.93 
#
DISCID=4008b906
DTITLE=TZU - Snarling at Strangers
DYEAR=2006
DGENRE=Hip-Hop
TTITLE0=Pacman
TTITLE1=City
TTITLE2=Gone
TTITLE3=On a train
TTITLE4=Listen
TTITLE5=Film clips
EXTD=
EXTT0=
EXTT1=
EXTT2=
EXTT3=
EXTT4=
EXTT5=
PLAYORDER=
